# xmcd
#
# Track frame offsets: 
#        150
#        15955
#        33952
#        62939
#        85443
#        104127
#        126832
#        153758
#
# Disc length: 2361 seconds
#
# Revision: 0
# Processed by: cddbd v1.5.2PL0 Copyright (c) Steve Scherf et al.
# Submitted via: ExactAudioCopy v1.3
#
DISCID=60093708
DTITLE=Carl Weathersby - Live at Rosa's Lounge
DYEAR=2019
DGENRE=Blues
TTITLE0=Travelin' Man (Live)
TTITLE1=Danger All About (Live)
TTITLE2=Feels Like Rain (Live)
TTITLE3=Help Me Somebody (Live)
TTITLE4=Looking out My Window (Live)
TTITLE5=We All Wanna Boogie (Live)
TTITLE6=Somebody Help Me (Live)
TTITLE7=Willingly (Live)
EXTD=
EXTT0=
EXTT1=
EXTT2=
EXTT3=
EXTT4=
EXTT5=
EXTT6=
EXTT7=
PLAYORDER=
